<svg xmlns="http://www.w3.org/2000/svg" style="display: none;">
    <symbol id="mission-icon" viewBox="0 0 24 24">
        <path fill="var(--primary-color)" d="M12 2C6.48 2 2 6.48 2 12s4.48 10 10 10 10-4.48 10-10S17.52 2 12 2zm0 18c-4.42 0-8-3.58-8-8s3.58-8 8-8 8 3.58 8 8-3.58 8-8 8zm-1-14h2v8h4l-3 3-3-3h4V6z"/>
        <!-- Door opening icon -->
    </symbol>
    <symbol id="vision-icon" viewBox="0 0 24 24">
        <path fill="var(--secondary-color)" d="M12 4.5C7 4.5 2.73 7.61 1 12c1.73 4.39 6 7.5 11 7.5s9.27-3.11 11-7.5c-1.73-4.39-6-7.5-11-7.5zm0 13c-3.31 0-6-2.69-6-6s2.69-6 6-6 6 2.69 6 6-2.69 6-6 6zm0-2c2.21 0 4-1.79 4-4s-1.79-4-4-4-4 1.79-4 4 1.79 4 4 4z"/>
        <!-- Eye icon for vision -->
    </symbol>
    <symbol id="mission-card-icon" viewBox="0 0 24 24">
        <path fill="var(--primary-color)" d="M12 21.35l-1.45-1.32C5.4 15.36 2 12.28 2 8.5 2 5.42 4.42 3 7.5 3c1.74 0 3.41.81 4.5 2.09C13.09 3.81 14.76 3 16.5 3 19.58 3 22 5.42 22 8.5c0 3.78-3.4 6.86-8.55 11.54L12 21.35z"/>
        <!-- Heart icon for mission -->
    </symbol>
    <symbol id="values-icon" viewBox="0 0 24 24">
        <path fill="var(--secondary-color)" d="M12 17.27L18.18 21l-1.64-7.03L22 9.24l-7.19-.61L12 2 9.19 8.63 2 9.24l5.46 4.73L5.82 21z"/>
        <!-- Star icon for values -->
    </symbol>
</svg>